<?xml version="1.0" encoding="UTF-8" standalone="no"?>
<!-- Created with Inkscape (http://www.inkscape.org/) -->

<svg
   width="300pt"
   height="300pt"
   viewBox="0 0 105.83333 105.83333"
   version="1.1"
   id="svg1"
   inkscape:version="1.3.2 (091e20e, 2023-11-25, custom)"
   sodipodi:docname="logo.svg"
   xmlns:inkscape="http://www.inkscape.org/namespaces/inkscape"
   xmlns:sodipodi="http://sodipodi.sourceforge.net/DTD/sodipodi-0.dtd"
   xmlns="http://www.w3.org/2000/svg"
   xmlns:svg="http://www.w3.org/2000/svg">
  <sodipodi:namedview
     id="namedview1"
     pagecolor="#000000"
     bordercolor="#000000"
     borderopacity="0.25"
     inkscape:showpageshadow="2"
     inkscape:pageopacity="0.0"
     inkscape:pagecheckerboard="0"
     inkscape:deskcolor="#d1d1d1"
     inkscape:document-units="mm"
     inkscape:zoom="1"
     inkscape:cx="163"
     inkscape:cy="307.5"
     inkscape:window-width="1680"
     inkscape:window-height="979"
     inkscape:window-x="-8"
     inkscape:window-y="-8"
     inkscape:window-maximized="1"
     inkscape:current-layer="layer1" />
  <defs
     id="defs1">
    <mask
       maskUnits="userSpaceOnUse"
       id="mask18">
      <g
         id="g19"
         style="display:inline;fill:none;fill-opacity:1;stroke:#fefefe;stroke-width:16.8237;stroke-dasharray:none;stroke-opacity:1;paint-order:normal"
         transform="matrix(1.4085485,0,0,0.93965807,0.03450188,0.72833611)">
        <path
           d="M 74.999686,9.4529901 A 65.547141,65.547133 0 0 0 9.4529901,74.999675 65.547141,65.547133 0 0 0 74.999686,140.547 65.547141,65.547133 0 0 0 140.54701,74.999675 65.547141,65.547133 0 0 0 74.999686,9.4529901 Z"
           style="fill:none;fill-opacity:1;stroke:#fefefe;stroke-width:16.8237;stroke-dasharray:none;stroke-opacity:1;paint-order:normal"
           id="path18" />
        <path
           d="M 74.999818,35.374581 A 39.625506,39.625501 0 0 0 35.374583,74.99981 39.625506,39.625501 0 0 0 74.999818,114.62543 39.625506,39.625501 0 0 0 114.62544,74.99981 39.625506,39.625501 0 0 0 74.999818,35.374581 Z"
           style="fill:none;fill-opacity:1;stroke:#fefefe;stroke-width:16.8237;stroke-dasharray:none;stroke-opacity:1;paint-order:normal"
           id="path19" />
      </g>
    </mask>
  </defs>
  <g
     inkscape:label="Layer 1"
     inkscape:groupmode="layer"
     id="layer1"
     style="fill:#ffffff;fill-opacity:1;stroke:none"
     transform="matrix(0.50326621,0,0,0.75439667,-0.26631174,-0.79840316)">
    <g
       id="g18"
       mask="url(#mask18)">
      <rect
         style="fill:#ffffff;fill-opacity:1;stroke:none;stroke-width:12.0499;stroke-dasharray:none;stroke-opacity:1"
         id="rect15"
         width="210.29294"
         height="58.453629"
         x="0.52917004"
         y="1.0583334" />
      <rect
         style="fill:#ffffff;fill-opacity:1;stroke:none;stroke-width:12.0499;stroke-dasharray:none;stroke-opacity:1"
         id="rect15-1"
         width="210.29294"
         height="58.453629"
         x="0.52917004"
         y="82.89341" />
      <rect
         style="fill:#ffffff;fill-opacity:1;stroke:none;stroke-width:5.90322;stroke-dasharray:none;stroke-opacity:1"
         id="rect15-1-7"
         width="105.14647"
         height="28.057741"
         x="0.52916676"
         y="57.173817" />
    </g>
  </g>
</svg>
